<?xml version="1.0" standalone="no"?>
<!DOCTYPE svg PUBLIC "-//W3C//DTD SVG 20010904//EN"
 "http://www.w3.org/TR/2001/REC-SVG-20010904/DTD/svg10.dtd">
<svg version="1.0" xmlns="http://www.w3.org/2000/svg"
 width="1200.000000pt" height="675.000000pt" viewBox="0 0 1200.000000 675.000000"
 preserveAspectRatio="xMidYMid meet">

<g transform="translate(0.000000,675.000000) scale(0.100000,-0.100000)"
fill="#000000" stroke="none">
<path d="M0 6060 l0 -690 6000 0 6000 0 0 690 0 690 -6000 0 -6000 0 0 -690z"/>
<path d="M4208 4999 c-20 -20 -28 -39 -28 -64 0 -19 5 -35 10 -35 6 0 10 -7
10 -15 0 -9 -9 -15 -24 -15 -13 0 -26 7 -30 15 -9 24 -26 17 -26 -10 0 -28
-14 -32 -36 -11 -8 8 -14 19 -14 25 0 6 -18 11 -40 11 -36 0 -40 -2 -40 -25 0
-22 4 -25 40 -25 29 0 40 -4 40 -15 0 -11 -11 -15 -40 -15 -29 0 -40 4 -40 15
0 8 -7 15 -15 15 -9 0 -15 9 -15 25 0 14 -4 25 -10 25 -5 0 -10 -7 -10 -15 0
-11 -11 -15 -40 -15 -29 0 -40 -4 -40 -15 0 -9 -9 -15 -21 -15 -25 0 -60 -31
-41 -38 17 -5 15 -32 -3 -32 -9 0 -15 -9 -15 -25 0 -14 -4 -25 -10 -25 -5 0
-10 11 -10 25 0 14 5 25 10 25 6 0 10 5 10 10 0 14 -27 12 -34 -2 -5 -10 -7
-10 -12 0 -7 14 -104 17 -104 2 0 -5 -7 -10 -15 -10 -8 0 -15 5 -15 10 0 6
-18 10 -40 10 -22 0 -40 -4 -40 -10 0 -5 -11 -10 -25 -10 -16 0 -25 -6 -25
-15 0 -9 -9 -15 -24 -15 -18 0 -25 -6 -28 -22 -2 -15 -11 -24 -25 -26 -13 -2
-23 -10 -23 -18 0 -8 -5 -14 -11 -14 -17 0 -39 -27 -39 -49 0 -12 5 -21 10
-21 18 0 11 -22 -15 -46 -25 -23 -36 -84 -15 -84 6 0 10 -11 10 -24 0 -13 7
-26 15 -30 8 -3 15 -10 15 -16 0 -14 -27 -13 -33 3 -2 7 -8 8 -13 3 -5 -5 -4
-11 4 -13 6 -3 12 -10 12 -16 0 -7 5 -19 10 -27 9 -13 11 -13 19 0 6 8 14 11
18 6 4 -5 2 -11 -4 -13 -7 -3 -13 -16 -13 -29 0 -19 5 -24 25 -24 20 0 25 5
25 25 0 20 5 25 25 25 14 0 28 -7 31 -15 4 -8 15 -15 25 -15 14 0 19 -7 19
-25 0 -18 -5 -25 -19 -25 -11 0 -23 -9 -26 -21 -9 -28 25 -59 65 -59 27 0 30
-3 25 -20 -4 -12 0 -26 9 -35 16 -17 56 -20 56 -5 0 6 -11 10 -25 10 -16 0
-25 6 -25 16 0 11 6 14 23 8 12 -3 24 -11 25 -15 2 -5 21 -9 43 -9 35 0 39 3
39 25 0 20 5 25 25 25 14 0 25 -2 25 -5 0 -3 -11 -16 -25 -29 -36 -33 -31 -46
15 -46 22 0 40 -4 40 -10 0 -5 11 -10 25 -10 26 0 35 -25 13 -33 -7 -2 -10 -8
-6 -12 9 -10 33 15 42 43 7 20 4 22 -33 22 -30 0 -41 4 -41 15 0 8 -7 15 -15
15 -8 0 -15 5 -15 10 0 6 18 10 40 10 22 0 40 -4 40 -10 0 -5 23 -10 50 -10
28 0 50 5 50 10 0 6 7 10 15 10 8 0 15 7 15 15 0 9 -9 15 -25 15 -14 0 -25 5
-25 10 0 6 -7 10 -15 10 -8 0 -15 -9 -15 -20 0 -15 -7 -20 -25 -20 -14 0 -25
5 -25 10 0 6 5 10 11 10 19 0 39 28 39 54 0 16 6 26 15 26 9 0 15 -9 15 -25 0
-18 7 -26 25 -31 14 -3 25 -10 25 -15 0 -5 11 -9 24 -9 13 0 26 -6 29 -12 3
-10 35 -13 120 -11 95 1 117 -1 117 -13 0 -9 12 -14 35 -14 23 0 35 5 35 14 0
12 22 14 117 13 85 -2 117 1 120 11 3 6 16 12 29 12 13 0 24 4 24 9 0 5 11 12
25 15 18 5 25 13 25 31 0 16 6 25 15 25 9 0 15 -10 15 -26 0 -26 20 -54 39
-54 6 0 11 -4 11 -10 0 -17 -25 -11 -40 10 -15 21 -40 27 -40 10 0 -5 -11 -10
-25 -10 -16 0 -25 -6 -25 -15 0 -8 7 -15 15 -15 23 0 18 -17 -7 -24 -13 -3
-50 -6 -83 -7 -43 -1 -52 -3 -31 -8 31 -6 48 -31 22 -31 -9 0 -16 -7 -16 -15
0 -26 17 -20 65 23 8 7 31 16 50 19 19 3 35 10 35 14 0 5 18 9 40 9 22 0 40 5
40 10 0 6 18 10 40 10 22 0 40 -4 40 -10 0 -5 -7 -10 -15 -10 -8 0 -15 -7 -15
-15 0 -11 -11 -15 -41 -15 -37 0 -40 -2 -33 -22 11 -37 54 -67 54 -38 0 6 -7
10 -15 10 -8 0 -15 7 -15 15 0 9 9 15 25 15 14 0 25 5 25 10 0 6 18 10 40 10
29 0 40 4 40 15 0 11 11 15 40 15 22 0 40 5 40 10 0 6 11 10 25 10 16 0 25 6
25 15 0 18 26 20 34 3 5 -10 7 -10 12 0 3 6 10 12 15 12 18 0 49 35 49 56 0
12 6 24 13 27 7 2 8 8 3 13 -5 5 -11 4 -13 -3 -3 -7 -16 -13 -29 -13 -19 0
-24 5 -24 25 0 18 5 25 19 25 10 0 21 7 25 15 6 17 44 20 66 4 11 -8 12 -12 3
-16 -22 -8 -14 -23 12 -23 20 0 25 5 25 25 0 14 -4 25 -10 25 -5 0 -10 5 -10
10 0 6 9 10 20 10 22 0 28 25 8 33 -9 3 -4 13 15 30 37 33 38 97 2 131 -26 24
-33 46 -15 46 6 0 10 8 10 18 -1 16 -1 16 -14 0 -18 -25 -26 -22 -26 7 0 14 5
25 10 25 6 0 10 5 10 10 0 6 -7 10 -15 10 -8 0 -15 7 -15 15 0 9 -9 15 -25 15
-16 0 -25 -6 -25 -15 0 -8 -4 -15 -10 -15 -5 0 -10 7 -10 15 0 8 5 15 10 15 6
0 10 11 10 25 0 20 -5 25 -25 25 -16 0 -25 6 -25 15 0 10 -10 15 -30 15 -16 0
-30 5 -30 10 0 6 -9 10 -20 10 -15 0 -20 -7 -20 -25 0 -16 -6 -25 -15 -25 -8
0 -15 -7 -15 -15 0 -8 -6 -15 -12 -15 -23 0 16 -20 40 -20 13 0 22 6 22 15 0
8 7 15 15 15 9 0 15 -9 15 -25 0 -16 6 -25 15 -25 8 0 15 5 15 10 0 6 5 10 10
10 6 0 10 -11 10 -25 0 -16 6 -25 15 -25 9 0 15 -9 15 -25 0 -14 5 -25 10 -25
6 0 10 5 10 10 0 6 7 10 15 10 17 0 20 -16 5 -25 -15 -9 -12 -94 4 -111 23
-22 37 -17 30 11 -5 19 -2 25 10 25 10 0 16 -9 16 -25 0 -14 -4 -25 -9 -25 -5
0 -11 -12 -13 -27 -3 -28 -28 -45 -28 -19 0 9 -4 16 -10 16 -5 0 -10 7 -10 15
0 8 -7 15 -15 15 -8 0 -15 5 -15 10 0 6 -5 10 -11 10 -6 0 -17 7 -25 15 -9 8
-26 15 -40 15 -13 0 -24 4 -24 9 0 5 -18 12 -40 16 -22 4 -40 11 -40 16 0 5
-29 9 -65 9 -51 0 -65 3 -65 15 0 8 5 15 10 15 15 0 12 97 -2 104 -10 5 -10 7
0 12 6 3 12 12 12 20 0 11 16 14 65 14 51 0 65 3 65 15 0 8 -5 15 -11 15 -6 0
-18 7 -26 16 -18 17 -85 13 -91 -6 -5 -14 -29 -13 -36 3 -5 10 -7 10 -12 0 -9
-20 -34 -15 -34 7 0 28 -30 60 -57 60 -13 0 -23 5 -23 10 0 6 -11 10 -25 10
-16 0 -25 6 -25 15 0 12 -13 15 -60 15 -45 0 -62 -4 -66 -15 -4 -8 -12 -15
-20 -15 -8 0 -14 -4 -14 -10 0 -5 -4 -10 -10 -10 -5 0 -10 11 -10 25 0 20 -5
25 -25 25 -16 0 -25 -6 -25 -15 0 -8 -7 -15 -15 -15 -8 0 -15 7 -15 15 0 8 5
15 10 15 23 0 10 66 -19 98 -17 17 -32 32 -35 32 -3 0 -6 -18 -6 -40 0 -36 3
-40 25 -40 16 0 25 -6 25 -15 0 -12 -14 -15 -65 -15 -51 0 -65 3 -65 15 0 9 9
15 25 15 23 0 25 4 25 40 0 47 -5 48 -42 9z m-38 -174 c0 -14 -4 -25 -10 -25
-5 0 -10 -7 -10 -15 0 -8 7 -15 15 -15 12 0 15 -14 15 -65 l0 -65 -66 0 c-45
0 -70 -5 -80 -15 -9 -8 -29 -15 -45 -15 -16 0 -29 -4 -29 -10 0 -5 -27 -12
-60 -16 -33 -4 -60 -11 -60 -15 0 -5 -7 -9 -15 -9 -8 0 -15 7 -15 15 0 8 5 15
10 15 6 0 10 28 10 65 0 37 -4 65 -10 65 -5 0 -10 5 -10 10 0 14 28 12 33 -2
2 -8 8 -9 13 -4 5 5 4 11 -3 13 -17 6 -16 21 1 39 17 16 36 19 36 4 0 -5 5
-10 10 -10 6 0 10 11 10 25 0 16 6 25 15 25 8 0 15 -4 15 -10 0 -6 37 -10 90
-10 53 0 90 4 90 10 0 6 7 10 15 10 8 0 15 7 15 15 0 8 5 15 10 15 6 0 10 -11
10 -25z m143 5 c13 -16 17 -39 17 -101 0 -74 -2 -84 -25 -105 -14 -13 -25 -32
-25 -44 0 -11 -7 -20 -15 -20 -22 0 -19 42 5 63 11 9 25 17 30 17 6 0 10 11
10 25 0 16 -6 25 -15 25 -18 0 -20 26 -2 34 10 5 10 7 0 12 -18 8 -16 34 2 34
9 0 15 9 15 25 0 18 -5 25 -20 25 -20 0 -26 11 -13 23 10 11 17 8 36 -13z m67
5 c0 -8 7 -15 15 -15 8 0 15 -4 15 -10 0 -6 37 -10 90 -10 53 0 90 4 90 10 0
6 7 10 15 10 8 0 15 -7 15 -15 0 -8 -4 -15 -10 -15 -5 0 -10 -4 -10 -10 0 -5
9 -10 20 -10 11 0 20 5 20 10 0 6 5 10 11 10 16 0 43 -30 34 -38 -4 -4 -10 -1
-12 6 -6 15 -23 16 -23 1 0 -14 25 -39 39 -39 6 0 11 5 11 10 0 6 5 10 10 10
6 0 10 -11 10 -25 0 -14 -4 -25 -10 -25 -5 0 -10 -22 -10 -50 0 -27 5 -50 10
-50 6 0 10 -7 10 -15 0 -18 -26 -20 -33 -2 -4 9 -8 9 -15 -2 -8 -11 -14 -11
-33 3 -13 9 -36 16 -51 16 -16 0 -28 5 -28 10 0 6 -15 10 -34 10 -21 0 -36 6
-40 15 -4 11 -21 15 -65 15 -67 0 -71 4 -71 81 0 37 4 49 15 49 8 0 15 5 15
10 0 6 -4 10 -10 10 -5 0 -10 14 -10 30 0 17 5 30 10 30 6 0 10 -7 10 -15z
m144 9 c29 -11 16 -24 -24 -24 -29 0 -40 4 -40 15 0 16 35 20 64 9z m-276 -18
c-19 -14 -25 -56 -8 -56 6 0 10 -7 10 -15 0 -8 7 -15 15 -15 8 0 15 -4 15 -10
0 -5 -7 -10 -15 -10 -8 0 -15 -7 -15 -15 0 -8 7 -15 15 -15 9 0 15 -9 15 -25
0 -16 -6 -25 -15 -25 -9 0 -15 9 -15 25 0 16 -6 25 -15 25 -8 0 -15 7 -15 15
0 8 7 15 15 15 8 0 15 5 15 10 0 6 -11 10 -25 10 -22 0 -25 4 -25 40 0 29 4
40 15 40 8 0 15 5 15 10 0 6 8 10 18 10 16 -1 16 -1 0 -14z m-648 -71 c0 -12
14 -15 65 -15 l65 0 0 -65 c0 -51 3 -65 15 -65 20 0 19 -6 -5 -30 -16 -16 -33
-20 -80 -20 -33 0 -60 -4 -60 -10 0 -5 -18 -13 -40 -16 -22 -4 -40 -10 -40
-15 0 -5 -11 -9 -25 -9 -16 0 -25 -6 -25 -15 0 -10 -10 -15 -30 -15 -30 0 -30
1 -30 55 0 33 -4 55 -11 55 -6 0 -9 6 -6 13 2 6 14 11 25 9 15 -2 22 2 22 12
0 9 -4 16 -10 16 -5 0 -10 7 -10 15 0 8 5 15 10 15 6 0 10 -7 10 -15 0 -8 7
-15 15 -15 9 0 15 9 15 25 0 14 5 25 10 25 6 0 10 -4 10 -10 0 -5 7 -10 15
-10 8 0 15 5 15 10 0 6 -4 10 -10 10 -5 0 -10 7 -10 15 0 9 9 15 25 15 16 0
25 -6 25 -15 0 -9 9 -15 23 -15 22 0 62 20 40 20 -16 0 -43 29 -43 46 0 8 7
14 15 14 8 0 15 -7 15 -15z m1170 -25 c0 -5 -4 -10 -10 -10 -5 0 -10 5 -10 10
0 6 5 10 10 10 6 0 10 -4 10 -10z m-960 -80 c0 -29 -4 -40 -15 -40 -16 0 -20
35 -9 64 11 29 24 16 24 -24z m-450 -25 c0 -8 -4 -15 -10 -15 -5 0 -10 7 -10
15 0 8 5 15 10 15 6 0 10 -7 10 -15z m840 -60 c0 -14 5 -25 10 -25 6 0 10 -7
10 -15 0 -8 -4 -15 -10 -15 -5 0 -10 7 -10 15 0 8 -4 15 -10 15 -5 0 -10 11
-10 25 0 14 5 25 10 25 6 0 10 -11 10 -25z m-807 -26 c6 -24 -1 -49 -14 -49
-5 0 -9 -9 -9 -21 0 -16 4 -19 17 -15 18 7 60 -30 48 -42 -4 -4 -10 -1 -12 6
-3 6 -11 12 -19 12 -17 0 -19 -47 -1 -53 6 -2 9 -8 5 -12 -9 -10 -48 32 -48
52 0 7 -4 13 -10 13 -5 0 -10 18 -10 40 0 22 4 40 10 40 5 0 12 11 16 25 8 30
20 32 27 4z m387 11 c0 -5 -4 -10 -10 -10 -5 0 -10 5 -10 10 0 6 5 10 10 10 6
0 10 -4 10 -10z m570 0 c0 -5 -4 -10 -10 -10 -5 0 -10 5 -10 10 0 6 5 10 10
10 6 0 10 -4 10 -10z m340 -5 c0 -8 -4 -15 -10 -15 -5 0 -10 7 -10 15 0 8 5
15 10 15 6 0 10 -7 10 -15z m80 5 c0 -5 -4 -10 -10 -10 -5 0 -10 5 -10 10 0 6
5 10 10 10 6 0 10 -4 10 -10z m-910 -45 c0 -14 -4 -25 -10 -25 -5 0 -10 11
-10 25 0 14 5 25 10 25 6 0 10 -11 10 -25z m470 15 c0 -5 -4 -10 -10 -10 -5 0
-10 5 -10 10 0 6 5 10 10 10 6 0 10 -4 10 -10z m-50 -35 c0 -14 6 -25 13 -25
6 0 18 -4 26 -9 12 -8 12 -12 -2 -26 -10 -9 -17 -23 -17 -31 0 -17 -16 -19
-24 -1 -5 10 -7 10 -12 0 -8 -18 -34 -16 -34 1 0 8 -7 22 -17 31 -14 14 -14
18 -2 26 8 5 20 9 27 9 6 0 12 11 12 25 0 16 6 25 15 25 9 0 15 -9 15 -25z
m410 15 c0 -5 -4 -10 -10 -10 -5 0 -10 5 -10 10 0 6 5 10 10 10 6 0 10 -4 10
-10z m-830 -69 c0 -10 7 -22 16 -25 9 -3 14 -15 12 -28 -2 -18 -10 -24 -39
-26 -41 -3 -50 10 -41 66 3 26 9 32 28 32 17 0 24 -6 24 -19z m860 -5 c0 -13
6 -27 13 -30 10 -5 10 -7 0 -12 -7 -3 -13 -12 -13 -20 0 -11 -10 -14 -37 -12
-49 4 -55 29 -16 68 35 35 53 37 53 6z m390 -11 c0 -8 -4 -15 -10 -15 -5 0
-10 7 -10 15 0 8 5 15 10 15 6 0 10 -7 10 -15z m-940 -25 c0 -5 11 -10 25 -10
20 0 25 -5 25 -26 0 -14 -6 -32 -14 -40 -16 -16 -56 -19 -56 -4 0 5 -11 12
-25 16 -24 6 -35 24 -15 24 6 0 10 7 10 15 0 8 7 15 15 15 8 0 15 5 15 10 0 6
5 10 10 10 6 0 10 -4 10 -10z m210 0 c0 -5 7 -10 15 -10 8 0 15 -7 15 -15 0
-8 5 -15 10 -15 20 0 9 -18 -15 -24 -14 -4 -25 -11 -25 -16 0 -15 -40 -12 -56
4 -22 23 -18 66 6 66 11 0 20 5 20 10 0 6 7 10 15 10 8 0 15 -4 15 -10z m760
-20 c0 -5 -4 -10 -10 -10 -5 0 -10 5 -10 10 0 6 5 10 10 10 6 0 10 -4 10 -10z
m-520 -56 c0 -30 -3 -34 -25 -34 -14 0 -25 5 -25 10 0 6 -7 10 -15 10 -9 0
-15 9 -15 24 0 20 6 25 33 28 44 5 47 2 47 -38z m-630 11 c0 -16 -6 -25 -15
-25 -8 0 -15 -4 -15 -10 0 -16 -37 -11 -44 6 -16 41 -7 54 34 54 36 0 40 -2
40 -25z m-180 -35 c0 -36 -2 -40 -25 -40 -14 0 -25 4 -25 9 0 5 -11 12 -25 15
-29 7 -34 26 -6 26 10 0 21 7 25 15 3 8 17 15 31 15 23 0 25 -4 25 -40z m966
25 c4 -8 17 -15 31 -15 33 0 25 -24 -10 -28 -15 -2 -27 -8 -27 -13 0 -5 -9 -9
-19 -9 -21 0 -31 19 -31 56 0 19 5 24 25 24 14 0 28 -7 31 -15z m-708 -26 c-2
-6 -8 -10 -13 -10 -5 0 -11 4 -13 10 -2 6 4 11 13 11 9 0 15 -5 13 -11z m212
-23 c0 -21 6 -36 15 -40 8 -3 15 -10 15 -16 0 -5 -7 -10 -15 -10 -8 0 -15 5
-15 10 0 6 -7 10 -15 10 -8 0 -15 -4 -15 -10 0 -5 -7 -10 -15 -10 -8 0 -15 -7
-15 -15 0 -12 -13 -15 -60 -15 -47 0 -60 3 -60 15 0 10 -10 15 -30 15 -20 0
-30 -5 -30 -15 0 -8 -4 -15 -10 -15 -15 0 -12 19 4 36 17 17 63 19 68 3 2 -7
27 -11 58 -11 31 0 56 4 58 11 2 6 10 11 18 11 10 0 14 12 14 40 0 29 4 40 15
40 10 0 15 -10 15 -34z m208 22 c-6 -18 -28 -21 -28 -4 0 9 7 16 16 16 9 0 14
-5 12 -12z m-868 -26 c3 -3 -1 -7 -7 -9 -7 -3 -13 -16 -13 -29 0 -21 -4 -24
-40 -24 -28 0 -40 4 -40 14 0 8 -6 16 -12 18 -15 5 6 31 32 40 16 6 71 -1 80
-10z m1399 -10 c12 -11 13 -16 3 -20 -6 -2 -12 -10 -12 -18 0 -10 -12 -14 -40
-14 -36 0 -40 3 -40 25 0 14 -4 25 -10 25 -23 0 -8 19 18 23 35 5 62 -2 81
-21z m-1319 -42 c0 -5 -4 -10 -10 -10 -5 0 -10 5 -10 10 0 6 5 10 10 10 6 0
10 -4 10 -10z m796 -4 c16 -17 19 -36 4 -36 -5 0 -10 7 -10 15 0 10 -10 15
-30 15 -16 0 -30 5 -30 10 0 15 49 12 66 -4z m354 4 c0 -5 -4 -10 -10 -10 -5
0 -10 5 -10 10 0 6 5 10 10 10 6 0 10 -4 10 -10z m-427 -19 c4 0 7 -5 7 -11 0
-6 -27 -10 -60 -10 -55 0 -79 12 -47 23 10 4 74 3 100 -2z m427 -36 c0 -8 -7
-15 -15 -15 -8 0 -15 7 -15 15 0 8 7 15 15 15 8 0 15 -7 15 -15z"/>
<path d="M3860 4760 c0 -5 5 -10 10 -10 6 0 10 5 10 10 0 6 -4 10 -10 10 -5 0
-10 -4 -10 -10z"/>
<path d="M3600 4810 c0 -5 5 -10 10 -10 6 0 10 5 10 10 0 6 -4 10 -10 10 -5 0
-10 -4 -10 -10z"/>
<path d="M3290 4575 c0 -8 5 -15 10 -15 6 0 10 7 10 15 0 8 -4 15 -10 15 -5 0
-10 -7 -10 -15z"/>
<path d="M5220 4575 c0 -8 5 -15 10 -15 6 0 10 7 10 15 0 8 -4 15 -10 15 -5 0
-10 -7 -10 -15z"/>
<path d="M3420 4260 c0 -5 5 -10 10 -10 6 0 10 5 10 10 0 6 -4 10 -10 10 -5 0
-10 -4 -10 -10z"/>
<path d="M4990 4130 c0 -5 5 -10 10 -10 6 0 10 5 10 10 0 6 -4 10 -10 10 -5 0
-10 -4 -10 -10z"/>
<path d="M2920 4090 c0 -25 -4 -30 -25 -30 -14 0 -25 -4 -25 -10 0 -5 -20 -10
-45 -10 -44 0 -85 -24 -85 -50 0 -5 -4 -10 -10 -10 -5 0 -10 -9 -10 -20 0 -11
5 -20 10 -20 6 0 10 -7 10 -15 0 -8 7 -15 15 -15 8 0 15 -7 15 -15 0 -8 5 -15
10 -15 6 0 10 -11 10 -25 0 -20 -5 -25 -25 -25 -50 0 -23 -17 36 -24 122 -12
329 -3 329 15 0 5 -11 9 -25 9 -20 0 -25 5 -25 25 0 14 5 25 10 25 6 0 10 7
10 15 0 8 7 15 15 15 11 0 15 12 15 50 0 38 -4 50 -15 50 -8 0 -15 7 -15 15 0
11 -12 15 -50 15 -27 0 -50 5 -50 10 0 6 -11 10 -25 10 -21 0 -25 5 -25 30 0
20 -5 30 -15 30 -10 0 -15 -10 -15 -30z"/>
<path d="M3916 4112 c-3 -5 6 -13 20 -16 24 -6 35 -13 69 -43 19 -17 35 -16
35 2 0 8 -7 15 -16 15 -26 0 -9 25 22 31 24 6 21 7 -17 8 -26 0 -60 4 -77 7
-16 3 -32 2 -36 -4z"/>
<path d="M4935 4110 c-4 -6 5 -10 19 -10 14 0 26 5 26 10 0 6 -9 10 -19 10
-11 0 -23 -4 -26 -10z"/>
<path d="M5584 4085 c-4 -18 -13 -25 -30 -25 -13 0 -24 -4 -24 -10 0 -5 -22
-10 -50 -10 -27 0 -50 -4 -50 -10 0 -5 -7 -10 -15 -10 -12 0 -15 -13 -15 -55
0 -32 4 -55 11 -55 13 0 39 -25 39 -38 0 -6 7 -12 15 -16 29 -11 15 -26 -25
-26 -62 0 -47 -16 21 -24 122 -12 329 -3 329 15 0 5 -11 9 -25 9 -19 0 -25 5
-25 20 0 12 11 31 25 44 14 13 25 28 25 35 0 6 4 11 8 11 4 0 8 16 8 35 0 25
-5 37 -18 41 -10 3 -18 10 -18 15 0 5 -20 9 -45 9 -25 0 -45 5 -45 10 0 6 -9
10 -19 10 -33 0 -51 11 -51 31 0 28 -19 23 -26 -6z"/>
<path d="M3600 4080 c0 -5 7 -10 15 -10 8 0 15 -7 15 -15 0 -9 9 -15 25 -15
28 0 31 -9 13 -29 -10 -11 -10 -14 0 -18 6 -3 12 -9 12 -15 0 -16 27 -38 47
-38 19 0 53 -32 53 -50 0 -6 -4 -10 -10 -10 -5 0 -10 -4 -10 -10 0 -5 16 -10
35 -10 19 0 35 5 35 10 0 6 20 10 45 10 25 0 45 -4 45 -10 0 -5 -13 -10 -29
-10 -16 0 -36 -7 -45 -15 -12 -12 -54 -15 -245 -15 l-231 0 -2 -297 -3 -298
-43 -3 c-24 -2 -65 4 -90 12 -56 19 -258 23 -264 4 -2 -6 -37 -13 -86 -16 -45
-2 -82 -8 -82 -13 0 -5 -9 -9 -19 -9 -11 0 -26 -7 -35 -15 -8 -8 -26 -15 -40
-15 -14 0 -26 -4 -26 -9 0 -5 -10 -13 -22 -17 -26 -8 -48 -28 -48 -43 0 -6 -7
-11 -15 -11 -11 0 -15 -12 -15 -50 0 -36 4 -52 15 -56 9 -4 15 -19 15 -40 0
-19 4 -34 9 -34 5 0 12 -11 15 -25 4 -14 11 -25 16 -25 6 0 10 -7 10 -15 0
-11 11 -15 39 -15 22 0 41 -4 43 -9 2 -4 13 -12 26 -15 22 -7 22 -6 22 83 0
106 4 121 35 121 13 0 30 7 39 15 22 22 410 22 432 0 9 -8 26 -15 39 -15 12 0
26 -7 29 -16 3 -9 6 -231 6 -495 0 -313 3 -479 10 -479 6 0 10 128 10 365 l0
365 40 0 40 0 0 -430 c0 -280 -3 -430 -10 -430 -5 0 -10 -7 -10 -15 0 -8 5
-15 10 -15 6 0 10 -6 10 -14 0 -20 64 -86 84 -86 9 0 16 -4 16 -10 0 -5 7 -10
15 -10 8 0 15 5 15 10 0 6 -7 10 -15 10 -13 0 -15 62 -15 495 l0 495 45 0 45
0 -2 -507 -3 -508 -27 -3 c-43 -5 -33 -22 12 -22 29 0 40 -4 40 -15 0 -9 9
-15 25 -15 14 0 25 -4 25 -10 0 -5 11 -10 25 -10 20 0 25 5 25 25 0 14 -4 25
-10 25 -7 0 -10 180 -10 520 l0 520 50 0 50 0 0 -536 0 -536 48 7 c26 4 49 11
50 16 2 5 17 9 33 9 16 0 29 5 29 10 0 6 -11 10 -25 10 l-25 0 0 470 c0 307 3
470 10 470 6 0 10 -11 10 -24 0 -14 7 -31 15 -40 8 -8 15 -19 15 -25 0 -6 5
-11 10 -11 6 0 10 -11 10 -25 0 -16 6 -25 15 -25 13 0 15 -49 15 -380 0 -331
-2 -380 -15 -380 -8 0 -15 -4 -15 -10 0 -5 7 -10 15 -10 8 0 15 5 15 10 0 6 7
10 15 10 8 0 15 7 15 15 0 8 9 15 20 15 13 0 22 9 26 25 3 14 12 25 20 25 8 0
14 6 14 14 0 8 6 16 13 19 8 3 7 9 -6 19 -17 12 -18 33 -15 275 3 230 10 308
25 266 3 -7 14 -13 26 -13 47 0 49 -9 43 -146 -3 -71 -8 -157 -12 -191 -5 -54
-3 -63 10 -63 10 0 16 -9 16 -25 0 -14 4 -25 9 -25 5 0 12 -11 15 -25 4 -14
11 -25 16 -25 17 0 11 -39 -10 -60 -22 -22 -56 -26 -63 -7 -2 7 -8 8 -13 3 -5
-5 -4 -11 4 -13 6 -3 12 -15 12 -28 0 -13 -6 -26 -12 -29 -10 -5 -10 -7 0 -12
7 -3 12 -24 12 -50 0 -42 1 -44 29 -44 l28 0 -3 80 c-3 63 -1 80 10 80 8 0 16
-6 19 -12 2 -8 8 -9 13 -4 5 5 4 11 -3 13 -14 5 -18 33 -5 33 10 0 42 -38 42
-50 0 -6 5 -10 11 -10 6 0 25 -16 43 -35 19 -19 43 -35 55 -35 12 0 21 -6 21
-15 0 -10 10 -15 29 -15 16 0 31 -5 33 -11 2 -7 42 -14 101 -17 53 -2 97 -9
97 -13 0 -5 11 -9 25 -9 14 0 25 5 25 10 0 6 9 10 19 10 11 0 26 7 35 15 8 8
24 15 35 15 12 0 21 4 21 10 0 5 11 12 25 16 14 3 25 10 25 15 0 5 7 9 15 9 8
0 15 7 15 15 0 8 5 15 11 15 14 0 39 25 39 39 0 6 7 11 15 11 8 0 15 7 15 15
0 8 5 15 10 15 6 0 10 11 10 25 0 16 6 25 15 25 10 0 15 10 15 34 0 19 6 36
13 38 9 4 12 91 12 394 l0 389 -302 3 -303 2 0 50 c0 28 -4 50 -10 50 -5 0
-10 18 -10 40 0 29 -4 40 -15 40 -8 0 -15 7 -15 15 0 8 -4 15 -9 15 -5 0 -13
10 -17 22 -8 25 -28 48 -43 48 -5 0 -16 6 -23 13 -27 24 -80 47 -109 47 l-29
0 0 350 0 350 58 0 c32 0 82 6 112 14 47 12 59 12 89 0 37 -15 118 -19 139 -5
11 7 10 10 -3 15 -9 3 -28 6 -41 6 -13 0 -24 5 -24 10 0 6 20 10 45 10 25 0
45 -4 45 -10 0 -5 16 -10 35 -10 19 0 35 5 35 10 0 6 -4 10 -10 10 -5 0 -10 4
-10 10 0 18 34 50 53 50 20 0 47 22 47 39 0 6 5 11 10 11 6 0 8 11 4 25 -5 19
-2 25 10 25 15 0 56 33 56 45 0 13 -68 4 -74 -10 -3 -8 -17 -15 -31 -15 -26 0
-34 -15 -12 -23 12 -5 2 -16 -28 -32 -6 -3 -5 -7 3 -11 22 -10 13 -34 -13 -34
-14 0 -25 -4 -25 -10 0 -5 -18 -10 -40 -10 -45 0 -54 14 -15 24 24 6 37 46 15
46 -5 0 -10 -7 -10 -15 0 -10 -10 -15 -30 -15 -16 0 -30 -4 -30 -10 0 -6 -37
-10 -90 -10 -73 0 -90 3 -90 15 0 11 12 15 50 15 28 0 50 4 50 9 0 5 12 11 28
13 19 2 28 9 30 26 3 18 -1 22 -22 22 -14 0 -26 -4 -26 -10 0 -5 -11 -10 -25
-10 -16 0 -25 -6 -25 -15 0 -12 -16 -15 -80 -15 -47 0 -80 -4 -80 -10 0 -6
-38 -10 -95 -10 -57 0 -95 4 -95 10 0 6 -33 10 -80 10 -64 0 -80 3 -80 15 0 8
-9 15 -20 15 -11 0 -20 5 -20 10 0 6 -14 10 -31 10 -26 0 -30 -3 -27 -22 2
-17 11 -24 31 -26 15 -2 27 -8 27 -13 0 -5 23 -9 50 -9 38 0 50 -4 50 -15 0
-12 -17 -15 -90 -15 -53 0 -90 4 -90 10 0 6 -13 10 -30 10 -20 0 -30 5 -30 15
0 8 -4 15 -10 15 -5 0 -10 -9 -10 -20 0 -15 7 -20 25 -20 16 0 25 -6 25 -15 0
-11 -11 -15 -40 -15 -22 0 -40 5 -40 10 0 6 -11 10 -25 10 -26 0 -35 24 -12
33 12 5 2 16 -28 32 -6 3 -5 7 3 11 21 10 13 24 -13 24 -14 0 -28 7 -31 15 -7
17 -74 21 -74 5z m463 -230 c7 0 6 -4 -3 -10 -19 -12 -70 -13 -70 -1 0 11 30
20 48 15 8 -2 19 -4 25 -4z m-228 -150 c7 -23 21 -26 28 -7 4 9 8 8 16 -3 19
-26 12 -40 -18 -40 -16 0 -32 6 -35 13 -5 10 -7 10 -12 0 -8 -19 -54 -16 -54
2 0 8 9 15 19 15 11 0 23 9 26 20 3 11 10 20 15 20 5 0 12 -9 15 -20z m-25
-90 c0 -5 -7 -10 -15 -10 -8 0 -15 5 -15 10 0 6 7 10 15 10 8 0 15 -4 15 -10z
m50 0 c0 -5 -7 -10 -15 -10 -8 0 -15 5 -15 10 0 6 7 10 15 10 8 0 15 -4 15
-10z m-102 -28 c2 -8 -13 -12 -52 -12 -31 0 -56 4 -56 9 0 20 101 23 108 3z
m220 9 c6 -1 12 -5 12 -11 0 -5 -22 -10 -50 -10 -35 0 -50 4 -50 13 0 13 15
14 88 8z m-248 -111 c0 -29 -4 -40 -15 -40 -8 0 -15 -7 -15 -15 0 -8 -4 -15
-10 -15 -5 0 -10 18 -10 39 0 22 -5 43 -10 46 -18 11 0 25 31 25 27 0 29 -2
29 -40z m130 15 c0 -14 -4 -25 -10 -25 -5 0 -10 5 -10 10 0 14 -27 12 -33 -2
-4 -10 -8 -9 -16 2 -20 29 -12 40 29 40 36 0 40 -2 40 -25z m119 16 c12 -8 9
-11 -12 -16 -20 -5 -27 -13 -27 -31 0 -15 -6 -24 -15 -24 -11 0 -15 11 -15 40
0 37 2 40 28 40 15 0 34 -4 41 -9z m-329 -61 c0 -5 -4 -10 -10 -10 -5 0 -10 5
-10 10 0 6 5 10 10 10 6 0 10 -4 10 -10z m130 0 c0 -5 -4 -10 -10 -10 -5 0
-10 5 -10 10 0 6 5 10 10 10 6 0 10 -4 10 -10z m100 0 c0 -5 -4 -10 -10 -10
-5 0 -10 5 -10 10 0 6 5 10 10 10 6 0 10 -4 10 -10z m-50 -25 c0 -8 -4 -15
-10 -15 -5 0 -10 7 -10 15 0 8 5 15 10 15 6 0 10 -7 10 -15z m140 7 c0 -10
-38 -42 -50 -42 -6 0 -10 7 -10 15 0 8 7 15 15 15 8 0 15 5 15 10 0 6 7 10 15
10 8 0 15 -3 15 -8z m54 -48 c27 -10 20 -44 -9 -44 -25 0 -25 -1 -25 -80 0
-67 -3 -80 -16 -80 -14 0 -15 7 -9 46 5 39 3 49 -14 65 -24 23 -41 24 -41 4 0
-8 -4 -15 -10 -15 -5 0 -10 -16 -10 -35 0 -19 5 -35 10 -35 6 0 10 -7 10 -15
0 -8 -4 -15 -10 -15 -5 0 -10 5 -10 10 0 6 -28 10 -65 10 l-65 0 0 40 c0 27
-5 43 -15 46 -8 4 -15 10 -15 15 0 5 7 9 15 9 8 0 15 5 15 10 0 6 -7 10 -15
10 -8 0 -15 -4 -15 -10 0 -5 -5 -10 -11 -10 -14 0 -39 -25 -39 -39 0 -6 -4
-11 -9 -11 -13 0 -24 37 -15 51 4 7 -1 18 -11 25 -10 8 -16 16 -13 19 3 4 79
6 169 7 125 0 166 3 177 14 15 16 23 17 46 8z m-344 -170 c0 -8 -7 -14 -15
-14 -15 0 -21 21 -9 33 10 9 24 -2 24 -19z m-680 -24 c0 -5 -4 -10 -10 -10 -5
0 -10 5 -10 10 0 6 5 10 10 10 6 0 10 -4 10 -10z m-110 -50 c0 -22 -4 -40 -10
-40 -5 0 -10 18 -10 40 0 22 5 40 10 40 6 0 10 -18 10 -40z m130 5 c0 -8 -4
-15 -10 -15 -5 0 -10 7 -10 15 0 8 5 15 10 15 6 0 10 -7 10 -15z m-200 -5 c0
-5 -7 -10 -15 -10 -8 0 -15 5 -15 10 0 6 7 10 15 10 8 0 15 -4 15 -10z m-60
-35 c0 -14 -4 -25 -10 -25 -5 0 -10 11 -10 25 0 14 5 25 10 25 6 0 10 -11 10
-25z m974 13 c5 -10 7 -10 12 0 3 6 18 12 34 12 16 0 31 -6 34 -12 5 -10 7
-10 12 0 4 8 31 12 85 12 l79 0 0 -40 0 -40 40 0 c22 0 40 -4 40 -10 0 -5 -7
-10 -15 -10 -8 0 -15 -7 -15 -15 0 -8 -4 -15 -10 -15 -5 0 -10 5 -10 10 0 6
-7 10 -15 10 -19 0 -20 -16 -1 -23 15 -6 11 -47 -5 -47 -5 0 -9 -7 -9 -15 0
-12 -13 -15 -55 -15 -52 0 -73 14 -40 26 19 8 20 44 1 44 -22 0 -28 17 -14 40
18 28 38 25 38 -5 0 -14 5 -25 10 -25 6 0 10 23 10 50 0 38 -4 50 -15 50 -8 0
-15 -5 -15 -11 0 -14 -25 -39 -39 -39 -6 0 -11 5 -11 10 0 6 5 10 10 10 6 0
10 7 10 15 0 8 -4 15 -10 15 -5 0 -10 -7 -10 -15 0 -11 -11 -15 -36 -15 -35 0
-64 -18 -64 -39 0 -6 5 -11 10 -11 21 0 9 -20 -15 -26 -27 -7 -36 -44 -10 -44
8 0 15 -7 15 -15 0 -12 -17 -15 -90 -15 l-90 0 0 65 0 65 35 0 c34 0 35 1 35
40 0 40 0 40 39 40 22 0 42 -6 45 -12z m646 -213 c0 -24 5 -35 15 -35 17 0 19
-18 5 -40 -9 -13 -11 -13 -19 0 -6 8 -14 11 -18 6 -4 -5 -2 -11 5 -13 6 -3 12
-18 12 -35 0 -19 -4 -28 -12 -25 -7 2 -12 14 -11 26 2 13 -3 21 -12 21 -8 0
-15 7 -15 15 0 8 5 15 10 15 6 0 10 15 10 34 0 19 3 41 6 50 11 28 24 17 24
-19z m-180 -9 c0 -13 7 -26 15 -30 19 -7 19 -21 -1 -40 -30 -30 -94 -10 -94
30 0 8 7 14 15 14 9 0 15 9 15 25 0 20 5 25 25 25 20 0 25 -5 25 -24z m130
-41 c0 -8 -7 -15 -15 -15 -16 0 -20 12 -8 23 11 12 23 8 23 -8z m-130 -75 c0
-5 -11 -10 -25 -10 -14 0 -25 5 -25 10 0 6 11 10 25 10 14 0 25 -4 25 -10z
m80 -60 c0 -36 3 -40 25 -40 14 0 25 -4 25 -10 0 -5 -7 -10 -15 -10 -8 0 -15
-7 -15 -15 0 -8 -4 -15 -10 -15 -5 0 -10 -11 -10 -25 0 -16 -6 -25 -15 -25
-11 0 -15 11 -15 40 0 36 -2 40 -25 40 -14 0 -25 4 -25 9 0 5 11 12 25 15 21
5 25 12 25 41 0 24 5 35 15 35 11 0 15 -11 15 -40z m320 -50 c0 -5 20 -10 45
-10 41 0 45 -2 45 -25 0 -14 -4 -25 -10 -25 -5 0 -10 5 -10 10 0 6 -13 10 -30
10 -16 0 -30 -4 -30 -10 0 -5 -16 -10 -35 -10 -19 0 -35 5 -35 10 0 6 14 10
30 10 20 0 30 5 30 15 0 8 -9 15 -20 15 -11 0 -20 5 -20 10 0 6 9 10 20 10 11
0 20 -4 20 -10z m130 0 c0 -5 -7 -10 -15 -10 -8 0 -15 5 -15 10 0 6 7 10 15
10 8 0 15 -4 15 -10z m170 0 c0 -5 18 -10 40 -10 29 0 40 -4 40 -15 0 -8 7
-15 15 -15 8 0 15 -4 15 -10 0 -5 -7 -10 -15 -10 -8 0 -15 -5 -15 -11 0 -16
-60 -73 -68 -64 -4 4 -1 10 6 12 6 3 12 11 12 19 0 8 7 14 15 14 8 0 15 7 15
15 0 8 5 15 10 15 6 0 10 5 10 10 0 6 -18 10 -40 10 -22 0 -40 -4 -40 -10 0
-5 -16 -10 -35 -10 -19 0 -35 5 -35 10 0 6 -18 10 -40 10 -22 0 -40 -4 -40
-10 0 -5 -7 -10 -15 -10 -11 0 -15 -11 -15 -40 0 -22 -4 -40 -10 -40 -5 0 -10
-13 -10 -30 0 -16 5 -30 10 -30 6 0 10 -28 10 -65 0 -37 -4 -65 -10 -65 -5 0
-10 24 -10 54 0 35 -5 60 -15 70 -8 8 -15 31 -15 50 0 25 4 36 15 36 9 0 15
10 15 26 0 26 20 54 39 54 6 0 11 7 11 15 0 11 11 15 40 15 22 0 40 5 40 10 0
6 16 10 35 10 19 0 35 -4 35 -10z m130 0 c0 -5 -9 -10 -20 -10 -11 0 -20 5
-20 10 0 6 9 10 20 10 11 0 20 -4 20 -10z m30 -35 c0 -14 -4 -25 -10 -25 -5 0
-10 11 -10 25 0 14 5 25 10 25 6 0 10 -11 10 -25z m-30 -45 c0 -5 -4 -10 -10
-10 -5 0 -10 5 -10 10 0 6 5 10 10 10 6 0 10 -4 10 -10z m-520 -50 c0 -5 -4
-10 -10 -10 -5 0 -10 5 -10 10 0 6 5 10 10 10 6 0 10 -4 10 -10z m30 -31 c0
-5 -4 -9 -10 -9 -5 0 -10 7 -10 16 0 8 5 12 10 9 6 -3 10 -10 10 -16z m60 -26
c24 -21 26 -33 5 -33 -8 0 -15 7 -15 15 0 8 -7 15 -15 15 -8 0 -15 5 -15 10 0
15 17 12 40 -7z m260 7 c0 -5 -7 -10 -15 -10 -8 0 -15 5 -15 10 0 6 7 10 15
10 8 0 15 -4 15 -10z m40 -5 c0 -8 -4 -15 -10 -15 -5 0 -10 7 -10 15 0 8 5 15
10 15 6 0 10 -7 10 -15z m103 -17 c6 -41 2 -47 -23 -41 -28 7 -29 73 -1 73 13
0 20 -9 24 -32z m57 -3 c0 -19 -4 -35 -10 -35 -5 0 -10 16 -10 35 0 19 5 35
10 35 6 0 10 -16 10 -35z m-600 -10 c0 -14 -4 -25 -10 -25 -5 0 -10 11 -10 25
0 14 5 25 10 25 6 0 10 -11 10 -25z m370 5 c0 -5 -7 -10 -15 -10 -8 0 -15 5
-15 10 0 6 7 10 15 10 8 0 15 -4 15 -10z m-422 -21 c-2 -6 -7 -10 -11 -10 -4
1 -15 1 -24 1 -15 0 -16 2 -3 10 20 13 43 13 38 -1z m152 -4 c0 -8 -4 -15 -10
-15 -5 0 -10 7 -10 15 0 8 5 15 10 15 6 0 10 -7 10 -15z m66 -29 c16 -17 19
-36 4 -36 -5 0 -10 7 -10 15 0 9 -9 15 -25 15 -14 0 -25 5 -25 10 0 15 39 12
56 -4z m204 4 c0 -5 -7 -10 -15 -10 -8 0 -15 5 -15 10 0 6 7 10 15 10 8 0 15
-4 15 -10z m50 0 c0 -5 -7 -10 -15 -10 -8 0 -15 5 -15 10 0 6 7 10 15 10 8 0
15 -4 15 -10z m-80 -30 c0 -5 -4 -10 -10 -10 -5 0 -10 5 -10 10 0 6 5 10 10
10 6 0 10 -4 10 -10z m-130 -19 c0 -6 -4 -13 -10 -16 -5 -3 -10 1 -10 9 0 9 5
16 10 16 6 0 10 -4 10 -9z m-240 -26 c0 -8 -4 -15 -10 -15 -5 0 -10 7 -10 15
0 8 5 15 10 15 6 0 10 -7 10 -15z m600 0 c0 -8 -4 -15 -10 -15 -5 0 -10 7 -10
15 0 8 5 15 10 15 6 0 10 -7 10 -15z m-434 -9 c21 -22 18 -26 -21 -26 -28 0
-35 4 -35 20 0 24 34 27 56 6z m274 4 c0 -5 7 -10 15 -10 8 0 15 -4 15 -10 0
-5 -16 -10 -35 -10 -28 0 -35 4 -35 20 0 13 7 20 20 20 11 0 20 -4 20 -10z
m-410 -35 c0 -14 -4 -25 -9 -25 -10 0 -21 36 -13 44 12 13 22 5 22 -19z m280
0 c0 -18 -5 -25 -20 -25 -15 0 -20 7 -20 25 0 18 5 25 20 25 15 0 20 -7 20
-25z m320 0 c0 -14 -4 -25 -10 -25 -5 0 -10 11 -10 25 0 14 5 25 10 25 6 0 10
-11 10 -25z m-80 -10 c0 -8 -7 -15 -15 -15 -16 0 -20 12 -8 23 11 12 23 8 23
-8z m-550 -30 c0 -8 -9 -15 -20 -15 -11 0 -20 7 -20 15 0 8 9 15 20 15 11 0
20 -7 20 -15z m164 9 c24 -9 9 -24 -25 -24 -19 0 -29 5 -29 15 0 15 26 20 54
9z m290 0 c28 -11 17 -24 -19 -24 -24 0 -35 5 -35 15 0 15 26 20 54 9z m146
-9 c0 -16 -35 -21 -44 -6 -8 12 4 21 26 21 10 0 18 -7 18 -15z m-360 -25 c0
-5 -4 -10 -10 -10 -5 0 -10 5 -10 10 0 6 5 10 10 10 6 0 10 -4 10 -10z m50
-70 c0 -47 -4 -80 -10 -80 -5 0 -10 -16 -10 -35 0 -19 5 -35 10 -35 6 0 10
-27 10 -60 0 -53 3 -64 27 -86 14 -13 23 -28 18 -32 -4 -4 -10 -1 -12 6 -3 6
-9 12 -15 12 -25 0 -38 31 -38 94 0 52 -3 66 -15 66 -11 0 -15 11 -15 40 0 29
4 40 15 40 12 0 15 15 15 75 0 43 4 75 10 75 6 0 10 -33 10 -80z m50 70 c0 -5
-4 -10 -10 -10 -5 0 -10 5 -10 10 0 6 5 10 10 10 6 0 10 -4 10 -10z m-130 -30
c0 -5 -4 -10 -10 -10 -5 0 -10 5 -10 10 0 6 5 10 10 10 6 0 10 -4 10 -10z
m160 0 c0 -5 7 -10 16 -10 17 0 14 -22 -4 -28 -7 -2 -12 3 -12 12 0 9 -4 16
-10 16 -5 0 -10 5 -10 10 0 6 5 10 10 10 6 0 10 -4 10 -10z m-398 -50 c-6 -41
-12 -38 -12 6 0 19 4 33 8 30 5 -3 7 -19 4 -36z m58 4 c0 -19 -7 -42 -15 -50
-8 -9 -15 -26 -15 -40 0 -13 -4 -24 -10 -24 -5 0 -10 16 -10 35 0 24 5 35 15
35 11 0 15 11 15 40 0 22 5 40 10 40 6 0 10 -16 10 -36z m130 26 c0 -5 -4 -10
-10 -10 -5 0 -10 5 -10 10 0 6 5 10 10 10 6 0 10 -4 10 -10z m470 -40 c0 -16
-4 -30 -10 -30 -5 0 -10 14 -10 30 0 17 5 30 10 30 6 0 10 -13 10 -30z m-500
10 c0 -5 -4 -10 -10 -10 -5 0 -10 5 -10 10 0 6 5 10 10 10 6 0 10 -4 10 -10z
m320 0 c0 -5 -7 -10 -15 -10 -8 0 -15 5 -15 10 0 6 7 10 15 10 8 0 15 -4 15
-10z m120 0 c0 -5 -9 -10 -20 -10 -11 0 -20 5 -20 10 0 6 9 10 20 10 11 0 20
-4 20 -10z m-386 -43 c-3 -9 -10 -17 -15 -17 -11 0 -12 34 -2 44 11 11 24 -9
17 -27z m206 18 c0 -8 -4 -15 -10 -15 -5 0 -10 7 -10 15 0 8 5 15 10 15 6 0
10 -7 10 -15z m-260 -25 c0 -5 -4 -10 -10 -10 -5 0 -10 5 -10 10 0 6 5 10 10
10 6 0 10 -4 10 -10z m300 0 c0 -5 -7 -10 -15 -10 -8 0 -15 5 -15 10 0 6 7 10
15 10 8 0 15 -4 15 -10z m170 0 c0 -5 -4 -10 -10 -10 -5 0 -10 5 -10 10 0 6 5
10 10 10 6 0 10 -4 10 -10z m-130 -25 c0 -8 -4 -15 -10 -15 -5 0 -10 7 -10 15
0 8 5 15 10 15 6 0 10 -7 10 -15z m-360 -5 c0 -5 -7 -10 -15 -10 -8 0 -15 -5
-15 -11 0 -19 -28 -39 -54 -39 -21 0 -26 -5 -26 -25 0 -14 -4 -25 -10 -25 -15
0 -12 39 4 56 8 8 26 14 40 14 14 0 26 5 26 10 0 15 23 39 38 40 6 0 12 -4 12
-10z m468 -62 c0 -33 -5 -48 -14 -48 -8 0 -13 9 -11 23 1 14 -3 22 -13 22 -17
0 -16 -48 0 -53 20 -7 9 -22 -15 -22 -14 0 -25 -4 -25 -10 0 -5 -8 -10 -17
-10 -17 1 -17 1 0 14 19 15 25 106 7 106 -5 0 -10 7 -10 15 0 8 5 15 10 15 6
0 10 -7 10 -15 0 -9 9 -15 24 -15 18 0 26 7 31 27 10 40 25 9 23 -49z m-271
30 c-3 -8 -6 -5 -6 6 -1 11 2 17 5 13 3 -3 4 -12 1 -19z m-243 -84 c25 -9 19
-24 -9 -24 -16 0 -25 6 -25 15 0 16 9 19 34 9z m46 -39 c0 -8 -4 -15 -9 -15
-13 0 -22 16 -14 24 11 11 23 6 23 -9z m50 4 c0 -7 11 -22 25 -35 31 -29 31
-34 1 -34 -13 0 -26 -6 -29 -12 -2 -8 -8 -9 -13 -4 -5 5 -4 11 4 13 17 6 15
50 -3 57 -8 3 -15 10 -15 16 0 5 7 10 15 10 8 0 15 -5 15 -11z m290 -4 c0 -8
-7 -15 -15 -15 -8 0 -15 7 -15 15 0 8 7 15 15 15 8 0 15 -7 15 -15z m-60 -50
c0 -8 -4 -15 -10 -15 -5 0 -10 7 -10 15 0 8 5 15 10 15 6 0 10 -7 10 -15z m80
0 c0 -8 -4 -15 -10 -15 -5 0 -10 7 -10 15 0 8 5 15 10 15 6 0 10 -7 10 -15z
m-360 -5 c0 -5 -4 -10 -10 -10 -5 0 -10 5 -10 10 0 6 5 10 10 10 6 0 10 -4 10
-10z m150 -15 c0 -21 5 -25 30 -25 17 0 30 -4 30 -10 0 -15 -49 -12 -66 4 -16
17 -19 56 -4 56 6 0 10 -11 10 -25z"/>
<path d="M3810 3320 c0 -5 5 -10 10 -10 6 0 10 5 10 10 0 6 -4 10 -10 10 -5 0
-10 -4 -10 -10z"/>
<path d="M3810 3245 c0 -8 5 -15 10 -15 6 0 10 7 10 15 0 8 -4 15 -10 15 -5 0
-10 -7 -10 -15z"/>
<path d="M3760 3090 c0 -5 5 -10 10 -10 6 0 10 5 10 10 0 6 -4 10 -10 10 -5 0
-10 -4 -10 -10z"/>
<path d="M3730 3060 c0 -5 -7 -10 -16 -10 -17 0 -14 -22 4 -28 7 -2 12 3 12
12 0 9 5 16 10 16 6 0 10 5 10 10 0 6 -4 10 -10 10 -5 0 -10 -4 -10 -10z"/>
<path d="M4150 2850 c0 -5 11 -10 25 -10 14 0 25 5 25 10 0 6 -11 10 -25 10
-14 0 -25 -4 -25 -10z"/>
<path d="M4830 2645 c0 -10 11 -15 35 -15 24 0 35 5 35 15 0 10 -11 15 -35 15
-24 0 -35 -5 -35 -15z"/>
<path d="M4100 4065 c0 -19 5 -25 21 -25 15 0 19 4 15 16 -3 9 -6 20 -6 25 0
5 -7 9 -15 9 -9 0 -15 -9 -15 -25z"/>
<path d="M4180 4065 c0 -25 1 -25 85 -25 84 0 85 0 85 25 0 25 -1 25 -85 25
-84 0 -85 0 -85 -25z"/>
<path d="M4402 4070 c-16 -27 -15 -30 8 -30 15 0 20 7 20 25 0 30 -11 32 -28
5z"/>
<path d="M3680 3925 c0 -16 41 -46 57 -43 28 5 22 23 -9 26 -16 2 -28 8 -28
13 0 5 -4 9 -10 9 -5 0 -10 -2 -10 -5z"/>
<path d="M4830 3920 c0 -5 -11 -10 -25 -10 -16 0 -25 -6 -25 -15 0 -22 33 -18
53 5 20 23 21 30 7 30 -5 0 -10 -4 -10 -10z"/>
<path d="M3130 3755 c0 -25 5 -45 10 -45 6 0 10 20 10 45 0 25 -4 45 -10 45
-5 0 -10 -20 -10 -45z"/>
<path d="M5803 3755 c0 -27 2 -38 4 -22 2 15 2 37 0 50 -2 12 -4 0 -4 -28z"/>
<path d="M4770 3729 c0 -29 -37 -59 -72 -59 -23 0 -28 -4 -28 -25 0 -20 -5
-25 -24 -25 -13 0 -26 7 -30 15 -6 17 -46 21 -46 4 0 -6 6 -17 14 -25 8 -8 19
-14 25 -14 6 0 11 -7 11 -15 0 -9 9 -15 25 -15 22 0 25 -4 25 -35 0 -27 -4
-35 -17 -35 -10 0 -28 -3 -40 -6 -17 -5 -23 -2 -23 10 0 10 -9 16 -25 16 -14
0 -25 5 -25 10 0 6 -7 10 -15 10 -8 0 -15 6 -15 14 0 8 -6 17 -12 20 -10 5
-10 7 0 12 12 6 18 84 6 84 -4 0 -17 -11 -30 -25 -16 -18 -34 -25 -59 -25 -19
0 -35 -4 -35 -10 0 -5 7 -10 15 -10 9 0 15 -9 15 -24 0 -13 -7 -26 -15 -30
-29 -11 -15 -26 25 -26 33 0 40 -3 40 -20 0 -21 33 -60 50 -60 6 0 10 -4 10
-10 0 -5 12 -13 26 -16 17 -4 23 -11 20 -21 -3 -8 -6 -19 -6 -24 0 -5 -11 -9
-24 -9 -13 0 -27 -6 -30 -12 -5 -10 -7 -10 -12 0 -6 14 -84 17 -84 3 0 -5 11
-12 25 -15 14 -4 25 -11 25 -16 0 -6 -11 -10 -25 -10 -16 0 -25 -6 -25 -15 0
-9 9 -15 25 -15 20 0 25 -5 25 -25 0 -20 5 -25 24 -25 19 0 25 6 28 27 3 24 7
27 48 29 24 1 46 7 48 13 5 14 62 14 62 0 0 -14 25 -39 39 -39 6 0 11 -7 11
-15 0 -8 -9 -15 -20 -15 -12 0 -30 -9 -42 -20 -17 -16 -20 -27 -16 -65 4 -34
2 -45 -8 -45 -8 0 -14 7 -14 16 0 11 -8 14 -27 12 -28 -3 -45 -28 -19 -28 25
0 19 -19 -9 -26 -14 -3 -25 -8 -25 -11 0 -9 29 -33 39 -33 6 0 11 -13 11 -30
0 -20 5 -30 15 -30 8 0 15 5 15 11 0 22 29 38 76 41 47 3 49 4 47 33 0 17 -3
39 -5 50 -2 12 3 21 13 23 12 2 18 -7 23 -38 3 -22 11 -40 16 -40 6 0 10 -7
10 -15 0 -9 9 -15 25 -15 14 0 25 -4 25 -10 0 -5 -11 -10 -25 -10 -28 0 -32
-14 -10 -36 8 -9 15 -29 15 -45 0 -16 5 -29 10 -29 6 0 10 7 10 15 0 8 7 15
15 15 9 0 15 -9 15 -25 0 -31 16 -33 26 -2 4 12 12 25 18 29 7 5 4 12 -9 23
-19 14 -19 16 -2 29 10 7 17 27 17 45 0 17 5 31 10 31 18 0 11 18 -9 25 -11 3
-23 16 -27 28 -4 12 -12 26 -18 30 -8 6 -8 10 2 14 6 2 12 11 12 19 0 8 7 14
15 14 8 0 15 4 15 9 0 5 10 11 23 15 45 11 79 118 42 132 -9 4 -15 19 -15 40
0 19 -4 34 -10 34 -5 0 -10 18 -10 40 0 22 5 40 10 40 6 0 10 7 10 15 0 8 7
15 15 15 9 0 15 9 15 25 0 14 4 25 10 25 5 0 13 18 16 40 4 22 10 40 15 40 5
0 9 11 9 25 0 14 -4 25 -10 25 -5 0 -10 -7 -10 -15 0 -8 -7 -15 -15 -15 -8 0
-15 -4 -15 -10 0 -5 -7 -10 -15 -10 -8 0 -15 5 -15 10 0 6 -4 10 -10 10 -5 0
-10 -15 -10 -32 0 -18 -7 -42 -15 -52 -19 -25 -21 -192 -3 -198 6 -2 13 -30
16 -62 4 -49 2 -60 -16 -77 -12 -10 -28 -19 -36 -19 -21 0 -72 51 -81 81 -4
13 -13 27 -19 32 -8 5 -8 9 0 15 6 4 15 18 19 32 9 27 28 50 44 50 6 0 11 11
11 25 0 16 -6 25 -15 25 -8 0 -15 7 -15 15 0 8 7 15 15 15 18 0 18 1 5 35 -12
33 6 65 37 65 14 0 23 6 23 15 0 8 -7 15 -15 15 -8 0 -15 7 -15 15 0 8 -4 15
-9 15 -5 0 -13 9 -16 20 -3 11 -17 23 -31 26 -13 3 -24 10 -24 15 0 5 -11 9
-25 9 -19 0 -25 -5 -25 -21z"/>
<path d="M2760 3690 c0 -5 8 -14 18 -20 12 -8 13 -13 5 -16 -20 -9 -15 -42 8
-67 15 -15 23 -18 26 -9 6 15 153 17 153 2 0 -5 21 -10 48 -10 35 0 52 5 65
20 20 24 22 56 5 64 -9 3 -8 8 5 16 39 25 12 30 -158 30 -104 0 -175 -4 -175
-10z m290 -30 c0 -19 -7 -20 -115 -20 -108 0 -115 1 -115 20 0 19 7 20 115 20
108 0 115 -1 115 -20z"/>
<path d="M5420 3690 c0 -6 7 -13 15 -16 18 -7 20 -51 3 -56 -8 -3 -4 -13 11
-29 16 -16 25 -20 28 -11 6 15 183 17 183 2 0 -16 57 -12 64 5 3 8 12 15 21
15 9 0 15 9 15 23 l0 23 -140 -4 c-139 -5 -140 -4 -140 18 0 21 1 22 142 19
103 -2 143 0 146 9 3 9 -40 12 -172 12 -114 0 -176 -4 -176 -10z"/>
<path d="M5740 3390 c0 -163 -7 -209 -24 -164 -5 12 -15 14 -50 9 -32 -5 -58
-2 -90 10 -37 14 -67 17 -156 13 -65 -3 -115 -9 -122 -16 -7 -7 -38 -12 -70
-12 -57 0 -57 0 -63 -32 -3 -18 -5 -64 -3 -103 3 -67 4 -70 29 -73 15 -2 33 4
42 12 12 13 40 16 131 16 71 0 116 4 116 10 0 6 11 10 25 10 14 0 25 -4 25
-10 0 -6 28 -10 65 -10 51 0 65 -3 65 -15 0 -11 11 -15 40 -15 l40 0 0 -180
c0 -153 -2 -180 -15 -180 -8 0 -15 7 -15 15 0 8 -7 15 -15 15 -8 0 -15 5 -15
10 0 6 -16 10 -35 10 -19 0 -35 4 -35 9 0 5 -13 12 -30 16 -16 4 -30 11 -30
16 0 5 -9 9 -20 9 -11 0 -23 7 -26 15 -4 8 -12 15 -20 15 -14 0 -22 35 -26
110 l-3 45 -35 -3 c-19 -2 -36 -8 -38 -13 -2 -5 -10 -9 -18 -9 -8 0 -14 -5
-14 -11 0 -6 -7 -17 -15 -25 -11 -11 -15 -38 -15 -95 0 -64 3 -79 15 -79 8 0
15 -5 15 -11 0 -14 25 -39 39 -39 6 0 11 -4 11 -10 0 -5 11 -12 25 -16 14 -3
25 -12 25 -20 0 -8 10 -14 25 -14 14 0 25 -4 25 -10 0 -5 11 -10 24 -10 13 0
26 -7 30 -15 3 -8 17 -15 31 -15 14 0 25 -4 25 -10 0 -5 11 -10 25 -10 16 0
25 -6 25 -15 0 -8 6 -15 14 -15 8 0 17 -6 20 -12 5 -10 7 -10 12 0 3 6 12 12
20 12 12 0 14 -35 14 -205 0 -130 4 -205 10 -205 6 0 10 70 10 190 0 162 2
190 15 190 8 0 15 -4 15 -10 0 -5 7 -10 15 -10 8 0 15 -7 15 -15 0 -8 -7 -15
-15 -15 -25 0 -21 -111 5 -133 27 -22 30 -22 30 8 0 16 6 25 15 25 8 0 15 5
15 11 0 6 6 17 13 24 6 8 18 21 25 29 7 9 12 43 12 80 0 42 4 66 13 70 10 5
10 7 0 12 -7 3 -13 12 -13 20 0 8 -7 14 -15 14 -8 0 -15 4 -15 10 0 5 -11 12
-25 16 -14 3 -25 10 -25 15 0 5 -11 9 -25 9 -16 0 -25 6 -25 15 0 8 -7 15 -15
15 -12 0 -15 15 -15 73 0 84 16 107 75 107 24 0 35 5 35 15 0 8 7 15 15 15 9
0 15 9 15 25 0 14 5 25 10 25 6 0 10 9 10 21 0 11 7 27 15 35 8 9 15 28 15 44
0 16 6 31 13 34 10 5 10 7 0 12 -7 3 -13 10 -13 14 0 10 -56 70 -65 70 -4 0
-13 7 -21 15 -9 8 -26 15 -40 15 -13 0 -33 8 -44 17 -19 16 -20 29 -20 195 0
112 -4 178 -10 178 -6 0 -10 -67 -10 -180z m-290 -225 c0 -19 -4 -35 -10 -35
-5 0 -10 16 -10 35 0 19 5 35 10 35 6 0 10 -16 10 -35z m130 10 c0 -14 -4 -25
-10 -25 -5 0 -10 11 -10 25 0 14 5 25 10 25 6 0 10 -11 10 -25z m-260 -35 c0
-5 -4 -10 -10 -10 -5 0 -10 5 -10 10 0 6 5 10 10 10 6 0 10 -4 10 -10z m340
-25 c0 -8 -4 -15 -10 -15 -5 0 -10 7 -10 15 0 8 5 15 10 15 6 0 10 -7 10 -15z
m210 -31 c0 -8 -4 -14 -10 -14 -5 0 -10 9 -10 21 0 11 5 17 10 14 6 -3 10 -13
10 -21z m-160 6 c0 -5 -4 -10 -10 -10 -5 0 -10 5 -10 10 0 6 5 10 10 10 6 0
10 -4 10 -10z"/>
<path d="M3080 2870 c0 -79 0 -80 -25 -80 -14 0 -28 -7 -31 -15 -4 -8 -15 -15
-25 -15 -10 0 -19 -4 -19 -9 0 -5 -11 -12 -25 -15 -14 -4 -25 -11 -25 -16 0
-6 -13 -10 -30 -10 -20 0 -30 -5 -30 -15 0 -10 -10 -15 -30 -15 -16 0 -30 -4
-30 -10 0 -5 -11 -10 -24 -10 -14 0 -31 -7 -40 -15 -8 -8 -24 -15 -35 -15 -12
0 -21 -4 -21 -9 0 -5 -11 -12 -25 -15 -14 -4 -25 -11 -25 -16 0 -6 -7 -10 -15
-10 -12 0 -15 -16 -15 -80 0 -47 4 -80 10 -80 6 0 10 -11 10 -24 0 -23 6 -31
45 -64 8 -7 15 -24 15 -37 0 -14 5 -25 10 -25 6 0 10 5 10 10 0 6 7 10 15 10
12 0 15 14 15 64 0 48 -4 65 -15 70 -8 3 -15 10 -15 16 0 5 7 10 15 10 8 0 15
5 15 10 0 6 11 10 24 10 14 0 31 7 40 15 8 8 26 15 40 15 16 0 26 6 26 15 0
10 10 15 30 15 17 0 30 5 30 10 0 6 11 10 24 10 14 0 31 7 40 15 8 8 22 15 31
15 9 0 26 11 39 25 13 14 33 25 45 25 12 0 21 6 21 15 0 8 5 15 11 15 14 0 39
25 39 39 0 6 7 11 15 11 12 0 15 16 15 88 -1 85 -12 122 -38 122 -6 0 -12 4
-14 9 -1 4 -20 11 -40 15 l-38 7 0 -81z"/>
<path d="M3003 2083 c-18 -3 -33 -8 -33 -14 0 -5 -34 -9 -75 -9 -43 0 -75 4
-75 10 0 6 -5 10 -11 10 -21 0 -39 -29 -39 -64 0 -25 -4 -36 -15 -36 -8 0 -15
-4 -15 -10 0 -6 72 -10 195 -10 123 0 195 4 195 10 0 6 -7 10 -15 10 -11 0
-15 11 -15 36 0 54 -30 75 -97 67z m77 -88 c0 -13 -23 -15 -145 -15 -122 0
-145 2 -145 15 0 13 23 15 145 15 122 0 145 -2 145 -15z"/>
<path d="M5447 2070 c-9 -11 -17 -36 -17 -55 0 -24 -5 -35 -15 -35 -8 0 -15
-4 -15 -10 0 -6 69 -11 185 -11 102 -1 190 -2 197 -3 6 -1 13 5 16 12 3 9 -36
12 -172 12 -153 0 -176 2 -176 16 0 13 20 15 158 13 113 -1 157 1 156 10 -1 6
-2 18 -2 26 -1 8 -11 15 -21 15 -10 0 -21 7 -25 15 -3 8 -17 15 -31 15 -16 0
-25 -6 -25 -15 0 -22 -168 -22 -184 0 -10 14 -13 13 -29 -5z"/>
<path d="M4230 1985 c0 -14 5 -25 10 -25 6 0 10 11 10 25 0 14 -4 25 -10 25
-5 0 -10 -11 -10 -25z"/>
<path d="M3397 1986 c-4 -10 -5 -21 -2 -24 9 -9 17 6 13 25 -3 17 -4 17 -11
-1z"/>
<path d="M2721 1918 c-2 -52 -10 -68 -37 -68 -15 0 -24 -6 -24 -15 0 -8 -4
-15 -10 -15 -6 0 -10 -40 -10 -100 0 -60 4 -100 10 -100 6 0 10 -7 10 -15 0
-8 5 -15 10 -15 6 0 10 4 10 10 0 5 18 13 40 16 22 4 40 10 40 15 0 5 18 9 40
9 22 0 40 -4 40 -10 0 -5 11 -10 25 -10 14 0 28 -7 31 -15 4 -9 19 -15 39 -15
20 0 35 6 39 15 3 8 17 15 31 15 14 0 25 5 25 10 0 6 18 10 40 10 22 0 40 -4
40 -9 0 -5 18 -11 40 -15 22 -3 40 -11 40 -16 0 -6 9 -1 20 10 17 17 20 33 20
115 0 57 -4 95 -10 95 -5 0 -10 6 -10 14 0 9 -12 16 -27 18 -26 3 -28 7 -31
51 -4 63 -22 61 -22 -3 l0 -50 -195 0 -194 0 -6 38 c-11 64 -13 68 -14 30z
m119 -108 c0 -6 38 -10 95 -10 57 0 95 4 95 10 0 6 18 10 40 10 22 0 40 -4 40
-10 0 -5 23 -10 50 -10 47 0 50 -2 50 -25 0 -25 -25 -36 -32 -14 -2 7 -37 11
-98 11 -61 0 -96 -4 -98 -11 -2 -6 -23 -11 -47 -11 -24 0 -45 5 -47 11 -2 7
-37 11 -98 11 -61 0 -96 -4 -98 -11 -7 -22 -32 -11 -32 14 0 23 3 25 50 25 28
0 50 5 50 10 0 6 18 10 40 10 22 0 40 -4 40 -10z m30 -100 c0 -6 28 -10 65
-10 37 0 65 4 65 10 0 6 32 10 75 10 43 0 75 -4 75 -10 0 -5 14 -10 30 -10 23
0 30 -5 30 -19 0 -17 -5 -19 -37 -14 -21 3 -39 10 -41 15 -5 12 -130 10 -134
-3 -2 -6 -30 -10 -63 -10 -33 0 -61 4 -63 10 -4 13 -129 15 -134 3 -1 -5 -20
-12 -40 -15 -33 -5 -38 -3 -38 14 0 14 7 19 25 19 14 0 25 5 25 10 0 6 33 10
80 10 47 0 80 -4 80 -10z"/>
<path d="M4200 1930 c0 -11 5 -20 10 -20 6 0 10 9 10 20 0 11 -4 20 -10 20 -5
0 -10 -9 -10 -20z"/>
<path d="M5380 1900 c0 -49 -1 -50 -30 -50 -28 0 -30 -3 -30 -34 0 -38 16 -57
26 -32 4 10 19 16 40 16 19 0 34 5 34 10 0 6 20 10 45 10 25 0 45 -4 45 -10 0
-6 37 -10 90 -10 53 0 90 4 90 10 0 6 23 10 50 10 28 0 50 -4 50 -10 0 -5 18
-10 40 -10 36 0 40 -2 40 -25 0 -25 -25 -36 -32 -14 -2 7 -37 11 -98 11 -61 0
-96 -4 -98 -11 -5 -14 -79 -15 -84 0 -5 15 -181 16 -186 1 -2 -7 -15 -12 -28
-12 -20 0 -24 -5 -24 -31 0 -29 2 -31 28 -24 15 3 29 11 30 16 5 12 152 12
152 -1 0 -6 28 -10 65 -10 37 0 65 4 65 10 0 6 33 10 80 10 47 0 80 -4 80 -10
0 -5 11 -10 25 -10 16 0 25 -6 25 -15 0 -11 -11 -15 -40 -15 -22 0 -40 5 -40
10 0 13 -107 13 -112 0 -4 -14 -141 -15 -146 -1 -5 14 -132 15 -132 1 0 -5
-18 -10 -40 -10 -36 0 -40 -3 -40 -24 0 -35 11 -60 20 -46 4 6 26 14 49 17 22
3 41 10 41 14 0 5 16 9 35 9 19 0 35 -4 35 -10 0 -5 13 -10 29 -10 16 0 36 -7
45 -15 16 -17 56 -20 56 -5 0 5 18 13 40 16 22 4 40 10 40 15 0 5 14 9 30 9
17 0 30 -4 30 -10 0 -5 16 -10 35 -10 22 0 38 -6 41 -15 4 -8 10 -15 15 -15 5
0 9 7 9 15 0 8 5 15 10 15 6 0 10 40 10 100 0 60 -4 100 -10 100 -5 0 -10 7
-10 15 0 9 -9 15 -24 15 -27 0 -35 16 -37 68 -1 38 -3 34 -14 -30 l-6 -38
-194 0 -195 0 0 50 c0 28 -4 50 -10 50 -5 0 -10 -22 -10 -50z"/>
<path d="M3420 1915 c0 -8 5 -15 10 -15 6 0 10 7 10 15 0 8 -4 15 -10 15 -5 0
-10 -7 -10 -15z"/>
<path d="M4180 1785 c0 -19 5 -35 10 -35 6 0 10 16 10 35 0 19 -4 35 -10 35
-5 0 -10 -16 -10 -35z"/>
<path d="M4330 1730 c0 -5 5 -10 10 -10 6 0 10 5 10 10 0 6 -4 10 -10 10 -5 0
-10 -4 -10 -10z"/>
<path d="M4070 1705 c0 -8 7 -15 15 -15 8 0 15 -4 15 -10 0 -5 7 -10 15 -10 8
0 15 5 15 10 0 6 9 10 19 10 26 0 51 10 51 21 0 5 -29 9 -65 9 -51 0 -65 -3
-65 -15z"/>
<path d="M4382 1708 c6 -18 28 -21 28 -4 0 9 -7 16 -16 16 -9 0 -14 -5 -12
-12z"/>
<path d="M4430 1695 c0 -22 -4 -25 -35 -25 -19 0 -35 5 -35 10 0 6 -7 10 -15
10 -19 0 -19 -7 -1 -25 23 -23 61 -28 79 -11 8 9 25 16 36 16 24 0 26 8 7 33
-19 25 -36 21 -36 -8z"/>
<path d="M4200 1680 c0 -5 -11 -10 -25 -10 -46 0 -26 -17 27 -23 28 -4 55 -12
58 -18 5 -8 14 -5 29 7 30 26 26 34 -19 34 -22 0 -40 5 -40 10 0 6 -7 10 -15
10 -8 0 -15 -4 -15 -10z"/>
<path d="M3790 1660 c0 -5 10 -10 23 -10 18 0 19 2 7 10 -19 13 -30 13 -30 0z"/>
<path d="M4713 1653 c9 -2 23 -2 30 0 6 3 -1 5 -18 5 -16 0 -22 -2 -12 -5z"/>
<path d="M3870 1630 c0 -5 11 -10 25 -10 14 0 25 5 25 10 0 6 -11 10 -25 10
-14 0 -25 -4 -25 -10z"/>
<path d="M4620 1630 c0 -5 11 -10 25 -10 14 0 25 5 25 10 0 6 -11 10 -25 10
-14 0 -25 -4 -25 -10z"/>
<path d="M3970 1600 c0 -5 16 -10 35 -10 19 0 35 5 35 10 0 6 -16 10 -35 10
-19 0 -35 -4 -35 -10z"/>
<path d="M4490 1600 c0 -5 7 -10 15 -10 8 0 15 5 15 10 0 6 -7 10 -15 10 -8 0
-15 -4 -15 -10z"/>
<path d="M4540 1600 c0 -5 5 -10 10 -10 6 0 10 5 10 10 0 6 -4 10 -10 10 -5 0
-10 -4 -10 -10z"/>
<path d="M4130 1580 c0 -5 24 -10 53 -9 38 0 47 3 32 9 -28 12 -85 12 -85 0z"/>
<path d="M4330 1580 c0 -5 18 -10 41 -10 24 0 38 4 34 10 -3 6 -22 10 -41 10
-19 0 -34 -4 -34 -10z"/>
<path d="M0 680 l0 -680 6000 0 6000 0 0 680 0 680 -6000 0 -6000 0 0 -680z"/>
</g>
</svg>
